<svg width="60" height="60" viewBox="0 0 60 60" fill="none" xmlns="http://www.w3.org/2000/svg">
<circle cx="30" cy="30" r="30" fill="#13E6C0"/>
<path d="M28.9261 41.9833C29.883 42.0022 30.8388 41.9063 31.773 41.6976C32.41 41.5477 33.0135 41.2798 33.5524 40.9076C33.9756 40.6167 34.3037 40.2068 34.4954 39.7293C34.6849 39.2382 34.7814 38.716 34.7801 38.1895C34.7735 37.594 34.6166 37.0098 34.3241 36.4916C34.0316 35.9734 33.6131 35.5379 33.1075 35.2258C31.9925 34.4522 30.0753 33.6116 27.3558 32.7041C26.1696 32.2845 24.9834 31.8025 23.7972 31.258C22.6393 30.7358 21.5633 30.0472 20.6033 29.2138C19.6526 28.3753 18.8731 27.3598 18.3079 26.2234C17.6806 24.8897 17.3758 23.4262 17.4182 21.952C17.3931 20.3894 17.7137 18.8407 18.3568 17.4173C18.9772 16.0847 19.8896 14.9099 21.0258 13.9806C22.267 12.9899 23.6889 12.2516 25.2117 11.807C27.0106 11.2749 28.8791 11.0176 30.7544 11.0438C32.8893 11.0049 35.0189 11.2693 37.0799 11.8293C38.599 12.2531 40.0704 12.8334 41.4704 13.5611L39.1172 20.0105C38.033 19.4562 36.9053 18.9919 35.7454 18.6224C34.3024 18.1928 32.8019 17.9895 31.2971 18.0199C29.3428 18.0199 27.94 18.2907 27.0889 18.8322C26.6714 19.0929 26.3319 19.4619 26.1064 19.9004C25.8809 20.3388 25.7777 20.8303 25.8078 21.3227C25.7791 21.9203 25.9377 22.5119 26.2615 23.0143C26.6181 23.5118 27.0722 23.931 27.596 24.2462C28.2244 24.6416 28.8887 24.9764 29.58 25.2459C30.3303 25.5435 31.1592 25.8485 32.0666 26.1609C33.9498 26.8602 35.5882 27.5505 36.982 28.2319C38.2568 28.8294 39.427 29.6298 40.4473 30.6019C41.3651 31.4995 42.0717 32.5913 42.5158 33.7976C43.0015 35.2339 43.2319 36.7446 43.1964 38.2609C43.1964 41.653 42.0101 44.2833 39.6377 46.152C37.2652 48.0206 33.6947 48.9564 28.9261 48.9594C27.4753 48.9691 26.0257 48.8722 24.589 48.6693C23.4334 48.5056 22.2894 48.2686 21.1637 47.9596C20.2903 47.7214 19.4342 47.4231 18.6015 47.0669C17.8898 46.75 17.267 46.4555 16.7999 46.1743L19.0997 39.6713C20.375 40.3438 21.7168 40.8808 23.1032 41.2736C25.0012 41.7842 26.9615 42.0231 28.9261 41.9833Z" fill="#19303D"/>
</svg>
